<?xml version="1.0" encoding="utf-8"?>
<!-- Generator: Adobe Illustrator 23.1.0, SVG Export Plug-In . SVG Version: 6.00 Build 0)  -->
<svg version="1.1" id="article" xmlns="http://www.w3.org/2000/svg" xmlns:xlink="http://www.w3.org/1999/xlink" x="0px" y="0px"
	 viewBox="0 0 300 440" style="enable-background:new 0 0 300 440;" xml:space="preserve">
<style type="text/css">
	.st0{fill:#FFFFFF;}
	.st1{fill:none;stroke:#707070;}
	.st2{font-family:'bold';}
	.st3{font-size:16.1002px;}
	.st4{font-family:'regular';}
	.st5{fill:#75787B;}
	.st6{fill:none;}
	.st7{font-size:24px;}
	.st8{font-size:16px;}
</style>
<g id="Rectangle_3" transform="translate(65 376)">
	<rect x="-30.1" y="-174.1" class="st0" width="265.1" height="238.3"/>
	<rect x="-29.8" y="-173.8" class="st1" width="264.6" height="237.7"/>
</g>
<path id="Path_2" d="M35,224.7l-12.9-8.5L0,201.6h35V224.7z"/>
<text id="cardCategory" transform="matrix(1 0 0 1 42.9341 229.2539)" class="st2 st3" style="text-decoration: underline;">Business benefits</text>
<g id="Group_5" transform="translate(-68 -891)">
	<text transform="matrix(1 0 0 1 110.397 1312.3818)" class="st4 st3">READ MORE</text>
	<path id="Icon_awesome-arrow-right" class="st5" d="M213.7,1299l0.8-0.8c0.4-0.4,0.9-0.4,1.3,0c0,0,0,0,0,0l7.3,7.3
		c0.4,0.4,0.4,0.9,0,1.3c0,0,0,0,0,0l-7.3,7.3c-0.4,0.4-0.9,0.4-1.3,0c0,0,0,0,0,0l-0.8-0.8c-0.4-0.4-0.4-0.9,0-1.3c0,0,0,0,0,0
		l4.5-4.3h-10.8c-0.5,0-0.9-0.4-0.9-0.9c0,0,0,0,0,0v-1.2c0-0.5,0.4-0.9,0.9-0.9c0,0,0,0,0,0h10.8l-4.5-4.3
		C213.3,1300,213.3,1299.4,213.7,1299C213.6,1299,213.6,1299,213.7,1299z"/>
</g>
<image style="overflow:visible;" width="878" height="527" xlink:href="card1.jpg"  transform="matrix(0.3416 0 0 0.3833 0 0)">
</image>
<rect x="42.1" y="244.9" class="st6" width="244.9" height="54.1"/>
<text id="cardTitle" transform="matrix(1 0 0 1 42.1299 261.6875)"><tspan x="0" y="0" class="st2 st7">Business model inno</tspan><tspan x="234.9" y="0" class="st2 st7">-</tspan><tspan x="0" y="28.8" class="st2 st7">vation</tspan></text>
<rect x="42.4" y="305.8" class="st6" width="244.6" height="96.2"/>
<text id="cardDescription" transform="matrix(1 0 0 1 42.4351 316.9746)"><tspan x="0" y="0" class="st4 st8">Companies can create new prod</tspan><tspan x="234.6" y="0" class="st4 st8">-</tspan><tspan x="0" y="19.2" class="st4 st8">ucts and</tspan><tspan x="0" y="38.4" class="st4 st8">services to generate additional </tspan><tspan x="0" y="57.6" class="st4 st8">revenue streams</tspan></text>
</svg>
